# xmcd
#
# Track frame offsets:
#	150
#	13890
#	27527
#	42690
#	62363
#	78962
#	92591
#	107977
#	124111
#	140959
#	160753
#	178279
#	199960
#	218109
#	236081
#	252319
#
# Disc length: 3562 seconds
#
# Revision: 2
# Processed by: cddbd v1.5.2PL0 Copyright (c) Steve Scherf et al.
# Submitted via: audiograbber 1.83.01
#
DISCID=ef0de810
DTITLE=Brooks and Dunn - #1s ... And Then Some - CD 1
DYEAR=2009
DGENRE=Country
TTITLE0=Honky Tonk Stomp
TTITLE1=Brand New Man
TTITLE2=Ain't Nothing 'Bout You
TTITLE3=Billbilly Deluxe
TTITLE4=How Long Gone
TTITLE5=Little Miss Honky Tonk
TTITLE6=She's Not The Cheatin' Kind
TTITLE7=A Man This Lonely
TTITLE8=Rock My World (Little Country Girl)
TTITLE9=Red Dirt Road
TTITLE10=The Long Goodbye
TTITLE11=You're Gonna Miss Me When I'm Gone
TTITLE12=If You See Him/If You See Her (With Reba McEntire)
TTITLE13=She Used To Be Mine
TTITLE14=That Ain't No Way To Go
TTITLE15=Boot Scootin' Boogie
EXTD=
EXTT0=
EXTT1=
EXTT2=
EXTT3=
EXTT4=
EXTT5=
EXTT6=
EXTT7=
EXTT8=
EXTT9=
EXTT10=
EXTT11=
EXTT12=
EXTT13=
EXTT14=
EXTT15=
PLAYORDER=
